<svg class="sun" xmlns="http://www.w3.org/2000/svg" xmlns:xlink="http://www.w3.org/1999/xlink" height="386.6"
            preserveAspectRatio="xMidYMid meet" version="1.0" viewBox="0.1 0.1 482.5 386.6" width="482.5" zoomAndPan="magnify">
            <linearGradient xmlns:xlink="http://www.w3.org/1999/xlink" gradientUnits="userSpaceOnUse" id="a" x1="241.992"
                x2="245.367" xlink:actuate="onLoad" xlink:show="other" xlink:type="simple" y1="240.821" y2="26.508">
                <stop offset="0" stop-color="#af2a92" />
                <stop offset="1" stop-color="#9672b2" />
            </linearGradient>
            <path
                d="M474.6,244.4h-45.9c0-103.1-83.6-186.8-186.8-186.8S55.2,141.2,55.2,244.4H9.3 c0-128.5,104.2-232.6,232.6-232.6C370.4,11.8,474.6,115.9,474.6,244.4z"
                fill="url(#a)" />
            <g id="change1_1">
                <path
                    d="M475.6,245.4h-47.9v-1c0-102.5-83.3-185.8-185.8-185.8c-102.4,0-185.7,83.3-185.7,185.8v1H8.3v-1 c0-62.4,24.3-121.1,68.4-165.2c44.1-44.1,102.8-68.4,165.2-68.4c62.4,0,121.1,24.3,165.2,68.4c44.1,44.1,68.5,102.8,68.5,165.2 V245.4z M429.7,243.4h43.9C473.1,116.2,369.3,12.8,241.9,12.8c-127.4,0-231.1,103.4-231.6,230.6h43.9c0.3-49.8,19.7-96.6,54.9-131.8 c35.4-35.5,82.6-55,132.8-55C345.1,56.6,429.2,140.3,429.7,243.4z"
                    fill="#302E32" />
            </g>
            <g id="change2_1">
                <path
                    d="M447.1,244.4h-40.4c0-90.8-73.6-164.4-164.4-164.4S78,153.6,78,244.4H37.6c0-113.1,91.7-204.8,204.7-204.8 C355.5,39.7,447.1,131.3,447.1,244.4z"
                    fill="#EABD43" />
            </g>
            <g id="change1_2">
                <path
                    d="M448.1,245.4h-42.5v-1c0-90.1-73.3-163.4-163.4-163.4C152.3,81,79,154.3,79,244.4v1H36.6v-1 c0-113.5,92.3-205.8,205.7-205.8c55,0,106.7,21.5,145.6,60.3c38.9,38.9,60.3,90.5,60.3,145.5V245.4z M407.7,243.4h38.3 c-0.6-111.8-91.8-202.6-203.8-202.7c-112,0-203.1,90.9-203.7,202.7H77C77.5,152.6,151.5,79,242.3,79 C333.2,79,407.2,152.6,407.7,243.4z"
                    fill="#302E32" />
            </g>
            <g id="change3_1">
                <path
                    d="M428.7,244.4h-14.8c0-95-77-172-172-172s-172,77-172,172H55.2c0-103.1,83.6-186.8,186.8-186.8 S428.7,141.2,428.7,244.4z"
                    fill="#EAE3DF" />
            </g>
            <g id="change1_3">
                <path
                    d="M429.7,245.4h-16.9v-1c0-94.3-76.7-171-171-171s-171,76.7-171,171v1H54.2v-1c0-103.6,84.3-187.8,187.8-187.8 c50.2,0,97.3,19.5,132.8,55c35.4,35.5,55,82.6,55,132.8V245.4z M414.9,243.4h12.7C427.1,141.4,344,58.6,242,58.6 c-102.1,0-185.2,82.8-185.8,184.7h12.6c0.6-94.9,78-172,173-172S414.4,148.4,414.9,243.4z"
                    fill="#302E32" />
            </g>
            <g id="change1_4">
                <path
                    d="M413.9,244.4h-47c0-69.1-56-125-125-125c-69.1,0-125,56-125,125h-47c0-95,77-172,172-172 C336.9,72.4,413.9,149.4,413.9,244.4z"
                    fill="#302E32" />
            </g>
            <g id="change1_5">
                <path
                    d="M414.9,245.4h-49.1v-1c0-68.4-55.6-124-124-124s-124,55.6-124,124v1H68.9v-1c0-95.4,77.6-173,173-173 s173,77.6,173,173V245.4z M367.9,243.4h44.9c-0.6-93.8-77-169.9-171-169.9c-93.9,0-170.4,76.1-171,169.9h44.9 c0.6-69,56.9-125,126-125S367.4,174.4,367.9,243.4z"
                    fill="#302E32" />
            </g>
            <linearGradient xmlns:xlink="http://www.w3.org/1999/xlink" gradientUnits="userSpaceOnUse" id="b" x1="242" x2="242"
                xlink:actuate="onLoad" xlink:show="other" xlink:type="simple" y1="260.625" y2="144.188">
                <stop offset="0" stop-color="#af2a92" />
                <stop offset="1" stop-color="#9672b2" />
            </linearGradient>
            <path
                d="M367,244.4h-23.7c0-56-45.4-101.3-101.3-101.3 s-101.3,45.4-101.3,101.3H117c0-69.1,56-125,125-125C311,119.3,367,175.3,367,244.4z"
                fill="url(#b)" />
            <g id="change1_6">
                <path
                    d="M368,245.4h-25.7v-1c0-55.3-45-100.3-100.3-100.3s-100.3,45-100.3,100.3v1H116v-1c0-69.5,56.5-126,126-126 c0.1,0,0.1,0,0.2,0c33.5,0,65.1,13.1,88.8,36.8c23.8,23.8,37,55.5,37,89.2V245.4z M344.3,243.4H366c-0.3-32.8-13.2-63.6-36.4-86.8 c-23.4-23.4-54.5-36.2-87.6-36.2c-68,0-123.5,55.1-124,123h21.7c0.5-55.9,46.2-101.3,102.3-101.3S343.8,187.5,344.3,243.4z"
                    fill="#302E32" />
            </g>
            <g id="change2_2">
                <path d="M295.6,244.4H188.3c0-29.6,24-53.6,53.6-53.6C271.5,190.8,295.6,214.8,295.6,244.4z" fill="#EABD43" />
            </g>
            <g id="change1_7">
                <path
                    d="M296.6,245.4H187.3v-1c0-30.1,24.5-54.6,54.6-54.6c30.2,0,54.7,24.5,54.7,54.6V245.4z M189.3,243.4h105.2 c-0.5-28.5-24-51.5-52.7-51.5C213.3,191.8,189.9,214.9,189.3,243.4z"
                    fill="#302E32" />
            </g>
            <g id="change3_2">
                <path d="M241.9,1.1c6.4,0,11.6,5.2,11.6,11.6s-5.2,11.6-11.6,11.6s-11.6-5.2-11.6-11.6S235.5,1.1,241.9,1.1z"
                    fill="#EAE3DF" />
            </g>
            <g id="change1_8">
                <path
                    d="M241.9,25.3c-7,0-12.6-5.7-12.6-12.6c0-7,5.7-12.6,12.6-12.6c7,0,12.6,5.7,12.6,12.6 C254.5,19.7,248.9,25.3,241.9,25.3z M241.9,2.1c-5.8,0-10.6,4.7-10.6,10.6c0,5.8,4.7,10.6,10.6,10.6c5.8,0,10.6-4.7,10.6-10.6 C252.5,6.9,247.7,2.1,241.9,2.1z"
                    fill="#302E32" />
            </g>
            <g id="change3_3">
                <path d="M277.8,3.9c6.4,0,11.6,5.2,11.6,11.6s-5.2,11.6-11.6,11.6s-11.6-5.2-11.6-11.6S271.4,3.9,277.8,3.9z"
                    fill="#EAE3DF" />
            </g>
            <g id="change1_9">
                <path
                    d="M277.8,28.1c-7,0-12.6-5.7-12.6-12.6s5.7-12.6,12.6-12.6s12.6,5.7,12.6,12.6S284.8,28.1,277.8,28.1z M277.8,4.9c-5.8,0-10.6,4.7-10.6,10.6s4.7,10.6,10.6,10.6s10.6-4.7,10.6-10.6S283.6,4.9,277.8,4.9z"
                    fill="#302E32" />
            </g>
            <g id="change3_4">
                <path d="M312.9,12.3c6.4,0,11.6,5.2,11.6,11.6s-5.2,11.6-11.6,11.6s-11.6-5.2-11.6-11.6S306.5,12.3,312.9,12.3z"
                    fill="#EAE3DF" />
            </g>
            <g id="change1_10">
                <path
                    d="M312.9,36.5c-7,0-12.6-5.7-12.6-12.6s5.7-12.6,12.6-12.6s12.6,5.7,12.6,12.6S319.9,36.5,312.9,36.5z M312.9,13.3c-5.8,0-10.6,4.7-10.6,10.6s4.7,10.6,10.6,10.6s10.6-4.7,10.6-10.6S318.7,13.3,312.9,13.3z"
                    fill="#302E32" />
            </g>
            <g id="change3_5">
                <path d="M346.2,26c6.4,0,11.6,5.2,11.6,11.6s-5.2,11.6-11.6,11.6s-11.6-5.2-11.6-11.6S339.8,26,346.2,26z"
                    fill="#EAE3DF" />
            </g>
            <g id="change1_11">
                <path
                    d="M346.2,50.2c-7,0-12.6-5.7-12.6-12.6S339.2,25,346.2,25s12.6,5.7,12.6,12.6S353.2,50.2,346.2,50.2z M346.2,27c-5.8,0-10.6,4.7-10.6,10.6s4.7,10.6,10.6,10.6s10.6-4.7,10.6-10.6S352,27,346.2,27z"
                    fill="#302E32" />
            </g>
            <g id="change3_6">
                <path d="M377,44.8c6.4,0,11.6,5.2,11.6,11.6S383.4,68,377,68s-11.6-5.2-11.6-11.6S370.6,44.8,377,44.8z"
                    fill="#EAE3DF" />
            </g>
            <g id="change1_12">
                <path
                    d="M377,69c-7,0-12.6-5.7-12.6-12.6S370,43.8,377,43.8s12.6,5.7,12.6,12.6S384,69,377,69z M377,45.8 c-5.8,0-10.6,4.7-10.6,10.6S371.2,67,377,67s10.6-4.7,10.6-10.6S382.8,45.8,377,45.8z"
                    fill="#302E32" />
            </g>
            <g id="change3_7">
                <path d="M404.5,68c6.4,0,11.6,5.2,11.6,11.6s-5.2,11.6-11.6,11.6s-11.6-5.2-11.6-11.6S398.1,68,404.5,68z"
                    fill="#EAE3DF" />
            </g>
            <g id="change1_13">
                <path
                    d="M404.5,92.2c-7,0-12.6-5.7-12.6-12.6S397.5,67,404.5,67s12.6,5.7,12.6,12.6S411.5,92.2,404.5,92.2z M404.5,69c-5.8,0-10.6,4.7-10.6,10.6s4.7,10.6,10.6,10.6s10.6-4.7,10.6-10.6S410.3,69,404.5,69z"
                    fill="#302E32" />
            </g>
            <g id="change3_8">
                <path d="M428,95.3c6.4,0,11.6,5.2,11.6,11.6s-5.2,11.6-11.6,11.6s-11.6-5.2-11.6-11.6S421.6,95.3,428,95.3z"
                    fill="#EAE3DF" />
            </g>
            <g id="change1_14">
                <path
                    d="M428,119.5c-7,0-12.6-5.7-12.6-12.6S421,94.3,428,94.3s12.6,5.7,12.6,12.6S435,119.5,428,119.5z M428,96.3 c-5.8,0-10.6,4.7-10.6,10.6s4.7,10.6,10.6,10.6s10.6-4.7,10.6-10.6S433.8,96.3,428,96.3z"
                    fill="#302E32" />
            </g>
            <g id="change3_9">
                <path d="M447.1,125.8c6.4,0,11.6,5.2,11.6,11.6s-5.2,11.6-11.6,11.6s-11.6-5.2-11.6-11.6S440.7,125.8,447.1,125.8z"
                    fill="#EAE3DF" />
            </g>
            <g id="change1_15">
                <path
                    d="M447.1,150c-7,0-12.6-5.7-12.6-12.6s5.7-12.6,12.6-12.6s12.6,5.7,12.6,12.6S454.1,150,447.1,150z M447.1,126.8c-5.8,0-10.6,4.7-10.6,10.6s4.7,10.6,10.6,10.6s10.6-4.7,10.6-10.6S452.9,126.8,447.1,126.8z"
                    fill="#302E32" />
            </g>
            <g id="change3_10">
                <path d="M461.2,159c6.4,0,11.6,5.2,11.6,11.6s-5.2,11.6-11.6,11.6s-11.6-5.2-11.6-11.6S454.8,159,461.2,159z"
                    fill="#EAE3DF" />
            </g>
            <g id="change1_16">
                <path
                    d="M461.2,183.2c-7,0-12.6-5.7-12.6-12.6s5.7-12.6,12.6-12.6s12.6,5.7,12.6,12.6S468.2,183.2,461.2,183.2z M461.2,160c-5.8,0-10.6,4.7-10.6,10.6s4.7,10.6,10.6,10.6s10.6-4.7,10.6-10.6S467,160,461.2,160z"
                    fill="#302E32" />
            </g>
            <g id="change3_11">
                <path d="M470,193.9c6.4,0,11.6,5.2,11.6,11.6s-5.2,11.6-11.6,11.6s-11.6-5.2-11.6-11.6S463.6,193.9,470,193.9z"
                    fill="#EAE3DF" />
            </g>
            <g id="change1_17">
                <path
                    d="M470,218.1c-7,0-12.6-5.7-12.6-12.6s5.7-12.6,12.6-12.6s12.6,5.7,12.6,12.6S477,218.1,470,218.1z M470,194.9 c-5.8,0-10.6,4.7-10.6,10.6s4.7,10.6,10.6,10.6s10.6-4.7,10.6-10.6S475.8,194.9,470,194.9z"
                    fill="#302E32" />
            </g>
            <g id="change3_12">
                <path d="M204.8,3.9c6.4,0,11.6,5.2,11.6,11.6s-5.2,11.6-11.6,11.6s-11.6-5.2-11.6-11.6S198.4,3.9,204.8,3.9z"
                    fill="#EAE3DF" />
            </g>
            <g id="change1_18">
                <path
                    d="M204.8,28.1c-7,0-12.6-5.7-12.6-12.6s5.7-12.6,12.6-12.6c7,0,12.6,5.7,12.6,12.6S211.8,28.1,204.8,28.1z M204.8,4.9c-5.8,0-10.6,4.7-10.6,10.6s4.7,10.6,10.6,10.6c5.8,0,10.6-4.7,10.6-10.6S210.6,4.9,204.8,4.9z"
                    fill="#302E32" />
            </g>
            <g id="change3_13">
                <path d="M169.8,12.3c6.4,0,11.6,5.2,11.6,11.6s-5.2,11.6-11.6,11.6s-11.6-5.2-11.6-11.6S163.4,12.3,169.8,12.3z"
                    fill="#EAE3DF" />
            </g>
            <g id="change1_19">
                <path
                    d="M169.8,36.5c-7,0-12.6-5.7-12.6-12.6s5.7-12.6,12.6-12.6c7,0,12.6,5.7,12.6,12.6S176.8,36.5,169.8,36.5z M169.8,13.3c-5.8,0-10.6,4.7-10.6,10.6s4.7,10.6,10.6,10.6c5.8,0,10.6-4.7,10.6-10.6S175.6,13.3,169.8,13.3z"
                    fill="#302E32" />
            </g>
            <g id="change3_14">
                <path d="M136.5,26c6.4,0,11.6,5.2,11.6,11.6s-5.2,11.6-11.6,11.6s-11.6-5.2-11.6-11.6S130.1,26,136.5,26z"
                    fill="#EAE3DF" />
            </g>
            <g id="change1_20">
                <path
                    d="M136.5,50.2c-7,0-12.6-5.7-12.6-12.6S129.5,25,136.5,25s12.6,5.7,12.6,12.6S143.5,50.2,136.5,50.2z M136.5,27c-5.8,0-10.6,4.7-10.6,10.6s4.7,10.6,10.6,10.6s10.6-4.7,10.6-10.6S142.3,27,136.5,27z"
                    fill="#302E32" />
            </g>
            <g id="change3_15">
                <path d="M105.7,44.8c6.4,0,11.6,5.2,11.6,11.6S112.1,68,105.7,68s-11.6-5.2-11.6-11.6S99.3,44.8,105.7,44.8z"
                    fill="#EAE3DF" />
            </g>
            <g id="change1_21">
                <path
                    d="M105.7,69c-7,0-12.6-5.7-12.6-12.6s5.7-12.6,12.6-12.6c7,0,12.6,5.7,12.6,12.6S112.7,69,105.7,69z M105.7,45.8c-5.8,0-10.6,4.7-10.6,10.6S99.9,67,105.7,67c5.8,0,10.6-4.7,10.6-10.6S111.5,45.8,105.7,45.8z"
                    fill="#302E32" />
            </g>
            <g id="change3_16">
                <path d="M78.2,68c6.4,0,11.6,5.2,11.6,11.6s-5.2,11.6-11.6,11.6S66.6,86,66.6,79.6S71.8,68,78.2,68z"
                    fill="#EAE3DF" />
            </g>
            <g id="change1_22">
                <path
                    d="M78.2,92.2c-7,0-12.6-5.7-12.6-12.6S71.2,67,78.2,67c7,0,12.6,5.7,12.6,12.6S85.2,92.2,78.2,92.2z M78.2,69 c-5.8,0-10.6,4.7-10.6,10.6s4.7,10.6,10.6,10.6c5.8,0,10.6-4.7,10.6-10.6S84,69,78.2,69z"
                    fill="#302E32" />
            </g>
            <g id="change3_17">
                <path d="M54.6,95.3c6.4,0,11.6,5.2,11.6,11.6s-5.2,11.6-11.6,11.6S43,113.3,43,106.9S48.2,95.3,54.6,95.3z"
                    fill="#EAE3DF" />
            </g>
            <g id="change1_23">
                <path
                    d="M54.6,119.5c-7,0-12.6-5.7-12.6-12.6s5.7-12.6,12.6-12.6s12.6,5.7,12.6,12.6S61.6,119.5,54.6,119.5z M54.6,96.3c-5.8,0-10.6,4.7-10.6,10.6s4.7,10.6,10.6,10.6s10.6-4.7,10.6-10.6S60.4,96.3,54.6,96.3z"
                    fill="#302E32" />
            </g>
            <g id="change3_18">
                <path d="M35.5,125.8c6.4,0,11.6,5.2,11.6,11.6S41.9,149,35.5,149s-11.6-5.2-11.6-11.6S29.1,125.8,35.5,125.8z"
                    fill="#EAE3DF" />
            </g>
            <g id="change1_24">
                <path
                    d="M35.5,150c-7,0-12.6-5.7-12.6-12.6s5.7-12.6,12.6-12.6s12.6,5.7,12.6,12.6S42.5,150,35.5,150z M35.5,126.8 c-5.8,0-10.6,4.7-10.6,10.6S29.7,148,35.5,148s10.6-4.7,10.6-10.6S41.3,126.8,35.5,126.8z"
                    fill="#302E32" />
            </g>
            <g id="change3_19">
                <path d="M21.4,159c6.4,0,11.6,5.2,11.6,11.6s-5.2,11.6-11.6,11.6S9.8,177,9.8,170.6S15,159,21.4,159z"
                    fill="#EAE3DF" />
            </g>
            <g id="change1_25">
                <path
                    d="M21.4,183.2c-7,0-12.6-5.7-12.6-12.6S14.4,158,21.4,158S34,163.6,34,170.6S28.4,183.2,21.4,183.2z M21.4,160 c-5.8,0-10.6,4.7-10.6,10.6s4.7,10.6,10.6,10.6S32,176.4,32,170.6S27.2,160,21.4,160z"
                    fill="#302E32" />
            </g>
            <g id="change3_20">
                <path d="M12.7,193.9c6.4,0,11.6,5.2,11.6,11.6s-5.2,11.6-11.6,11.6s-11.6-5.2-11.6-11.6S6.3,193.9,12.7,193.9z"
                    fill="#EAE3DF" />
            </g>
            <g id="change1_26">
                <path
                    d="M12.7,218.1c-7,0-12.6-5.7-12.6-12.6s5.7-12.6,12.6-12.6c7,0,12.6,5.7,12.6,12.6S19.7,218.1,12.7,218.1z M12.7,194.9c-5.8,0-10.6,4.7-10.6,10.6s4.7,10.6,10.6,10.6c5.8,0,10.6-4.7,10.6-10.6S18.5,194.9,12.7,194.9z"
                    fill="#302E32" />
            </g>
            <g id="change2_3">
                <path
                    d="M244.1,84.2l2.3,4.6c0.4,0.7,1,1.2,1.8,1.3l5.1,0.7c2,0.3,2.8,2.7,1.3,4.1l-3.7,3.6 c-0.6,0.6-0.8,1.4-0.7,2.1l0.9,5.1c0.3,2-1.7,3.5-3.5,2.6L243,106c-0.7-0.4-1.6-0.4-2.3,0l-4.5,2.4c-1.8,0.9-3.9-0.6-3.5-2.6 l0.9-5.1c0.1-0.8-0.1-1.6-0.7-2.1l-3.7-3.6c-1.4-1.4-0.6-3.8,1.3-4.1l5.1-0.7c0.8-0.1,1.5-0.6,1.8-1.3l2.3-4.6 C240.6,82.4,243.2,82.4,244.1,84.2z"
                    fill="#EABD43" />
            </g>
            <g id="change2_4">
                <path
                    d="M288.4,91.3l0.9,5c0.1,0.8,0.7,1.4,1.4,1.8l4.7,2.1c1.8,0.8,1.9,3.4,0.1,4.3L291,107 c-0.7,0.4-1.2,1.1-1.3,1.9l-0.6,5.1c-0.2,2-2.6,2.9-4.1,1.5l-3.7-3.6c-0.6-0.6-1.4-0.8-2.2-0.6l-5,1c-2,0.4-3.5-1.6-2.7-3.4l2.2-4.6 c0.4-0.7,0.3-1.6-0.1-2.2l-2.5-4.4c-1-1.8,0.5-3.9,2.4-3.6l5.1,0.7c0.8,0.1,1.6-0.2,2.1-0.8l3.5-3.8C285.5,88.7,288,89.4,288.4,91.3 z"
                    fill="#EABD43" />
            </g>
            <g id="change2_5">
                <path
                    d="M328.9,110.4l-0.5,5.1c-0.1,0.8,0.2,1.6,0.8,2.1l3.9,3.3c1.5,1.3,0.9,3.8-1.1,4.2l-5,1.1 c-0.8,0.2-1.4,0.7-1.7,1.4l-2,4.7c-0.8,1.9-3.3,2-4.3,0.3l-2.6-4.4c-0.4-0.7-1.1-1.1-1.9-1.2l-5.1-0.4c-2-0.2-3-2.5-1.6-4l3.4-3.8 c0.5-0.6,0.7-1.4,0.5-2.2l-1.2-5c-0.5-1.9,1.5-3.6,3.3-2.8l4.7,2.1c0.7,0.3,1.6,0.3,2.2-0.2l4.4-2.7 C327,107.1,329.1,108.4,328.9,110.4z"
                    fill="#EABD43" />
            </g>
            <g id="change2_6">
                <path
                    d="M362.6,140l-1.9,4.8c-0.3,0.7-0.2,1.6,0.2,2.2l2.8,4.3c1.1,1.7-0.2,3.9-2.2,3.8l-5.1-0.4 c-0.8-0.1-1.6,0.3-2.1,0.9l-3.2,4c-1.2,1.6-3.8,1-4.2-0.9l-1.2-5c-0.2-0.8-0.8-1.4-1.5-1.7l-4.8-1.8c-1.9-0.7-2.1-3.3-0.4-4.3 l4.3-2.7c0.7-0.4,1.1-1.1,1.1-1.9l0.2-5.1c0.1-2,2.4-3,4-1.8l3.9,3.3c0.6,0.5,1.4,0.7,2.2,0.5l4.9-1.4 C361.7,136.2,363.4,138.1,362.6,140z"
                    fill="#EABD43" />
            </g>
            <g id="change2_7">
                <path
                    d="M386.8,177.8l-3.2,4c-0.5,0.6-0.6,1.5-0.4,2.2l1.5,4.9c0.6,1.9-1.3,3.7-3.1,3l-4.8-1.8 c-0.8-0.3-1.6-0.2-2.2,0.3l-4.2,3c-1.6,1.2-3.9-0.1-3.8-2.1l0.2-5.1c0-0.8-0.3-1.6-1-2l-4.1-3.1c-1.6-1.2-1.1-3.7,0.8-4.3l4.9-1.4 c0.8-0.2,1.4-0.8,1.6-1.6l1.6-4.9c0.6-1.9,3.2-2.2,4.3-0.6l2.9,4.2c0.4,0.7,1.2,1.1,2,1.1l5.1,0.1 C386.9,173.9,388,176.2,386.8,177.8z"
                    fill="#EABD43" />
            </g>
            <g id="change2_8">
                <path
                    d="M399.6,220.7l-4.1,3c-0.6,0.5-1,1.2-1,2l0.1,5.1c0,2-2.2,3.2-3.9,2l-4.1-3c-0.6-0.5-1.5-0.6-2.2-0.3 l-4.8,1.7c-1.9,0.7-3.7-1.1-3.1-3l1.6-4.9c0.2-0.8,0.1-1.6-0.4-2.2l-3.1-4.1c-1.2-1.6-0.1-3.9,1.9-3.9h5.1c0.8,0,1.5-0.4,2-1 l2.9-4.2c1.1-1.6,3.7-1.3,4.3,0.6l1.6,4.9c0.2,0.8,0.9,1.4,1.6,1.6l4.9,1.5C400.8,217,401.2,219.6,399.6,220.7z"
                    fill="#EABD43" />
            </g>
            <g id="change2_9">
                <path
                    d="M193.4,91.3l-0.9,5c-0.1,0.8-0.7,1.4-1.4,1.8l-4.7,2.1c-1.8,0.8-1.9,3.4-0.1,4.3l4.5,2.4 c0.7,0.4,1.2,1.1,1.3,1.9l0.6,5.1c0.2,2,2.6,2.9,4.1,1.5l3.7-3.6c0.6-0.6,1.4-0.8,2.2-0.6l5,1c2,0.4,3.5-1.6,2.7-3.4l-2.2-4.6 c-0.4-0.7-0.3-1.6,0.1-2.2l2.5-4.4c1-1.8-0.4-3.9-2.4-3.6l-5.1,0.7c-0.8,0.1-1.6-0.2-2.1-0.8l-3.4-3.8 C196.2,88.7,193.8,89.4,193.4,91.3z"
                    fill="#EABD43" />
            </g>
            <g id="change2_10">
                <path
                    d="M152.8,110.4l0.5,5.1c0.1,0.8-0.2,1.6-0.8,2.1l-3.9,3.3c-1.5,1.3-0.9,3.8,1.1,4.2l5,1.1 c0.8,0.2,1.4,0.7,1.7,1.4l2,4.7c0.8,1.9,3.3,2,4.3,0.3l2.6-4.4c0.4-0.7,1.1-1.1,1.9-1.2l5.1-0.4c2-0.2,3-2.5,1.6-4l-3.4-3.8 c-0.5-0.6-0.7-1.4-0.6-2.2l1.2-5c0.5-1.9-1.5-3.6-3.3-2.8l-4.7,2.1c-0.7,0.3-1.6,0.3-2.2-0.2l-4.4-2.7 C154.8,107.1,152.6,108.4,152.8,110.4z"
                    fill="#EABD43" />
            </g>
            <g id="change2_11">
                <path
                    d="M119.2,140l1.9,4.8c0.3,0.7,0.2,1.6-0.2,2.2l-2.8,4.3c-1.1,1.7,0.2,3.9,2.2,3.8l5.1-0.4 c0.8-0.1,1.6,0.3,2.1,0.9l3.2,4c1.2,1.6,3.8,1,4.2-0.9l1.2-5c0.2-0.8,0.8-1.4,1.5-1.7l4.8-1.8c1.9-0.7,2.1-3.3,0.4-4.3l-4.3-2.7 c-0.7-0.4-1.1-1.1-1.1-1.9l-0.2-5.1c-0.1-2-2.4-3-4-1.8l-3.9,3.3c-0.6,0.5-1.4,0.7-2.2,0.5l-4.9-1.4 C120.1,136.2,118.4,138.1,119.2,140z"
                    fill="#EABD43" />
            </g>
            <g id="change2_12">
                <path
                    d="M95,177.8l3.2,4c0.5,0.6,0.6,1.5,0.4,2.2l-1.5,4.9c-0.6,1.9,1.3,3.7,3.1,3l4.8-1.8c0.8-0.3,1.6-0.2,2.2,0.3 l4.2,3c1.6,1.2,3.9-0.1,3.8-2.1l-0.2-5.1c0-0.8,0.3-1.6,1-2l4.1-3.1c1.6-1.2,1.2-3.7-0.8-4.3l-4.9-1.4c-0.8-0.2-1.4-0.8-1.6-1.6 l-1.6-4.9c-0.6-1.9-3.2-2.2-4.3-0.6l-2.9,4.2c-0.4,0.7-1.2,1.1-2,1.1l-5.1,0.1C94.8,173.9,93.7,176.2,95,177.8z"
                    fill="#EABD43" />
            </g>
            <g id="change2_13">
                <path
                    d="M82.2,220.7l4.2,3c0.7,0.5,1,1.2,1,2l-0.1,5.1c-0.1,2,2.2,3.2,3.8,2l4.1-3c0.6-0.5,1.5-0.6,2.2-0.3l4.8,1.7 c1.9,0.7,3.7-1.1,3.1-3l-1.6-4.9c-0.2-0.8-0.1-1.6,0.4-2.2l3.1-4.1c1.2-1.6,0.1-3.9-1.9-3.9h-5.1c-0.8,0-1.6-0.4-2-1l-2.9-4.2 c-1.1-1.6-3.7-1.3-4.3,0.6l-1.6,4.9c-0.2,0.8-0.8,1.4-1.6,1.6l-4.9,1.5C81,217,80.6,219.6,82.2,220.7z"
                    fill="#EABD43" />
            </g>
            <g id="change2_14">
                <path d="M241.9,175.9c0,0-10.6-21.1,0-21.1S241.9,175.9,241.9,175.9z" fill="#EABD43" />
            </g>
            <g id="change1_27">
                <path
                    d="M241.9,176.9c-0.4,0-0.7-0.2-0.9-0.6c-0.8-1.5-7.2-14.7-3.8-20.2c0.7-1.1,2-2.4,4.8-2.4 c2.7,0,4.1,1.3,4.8,2.4c3.4,5.5-3.1,18.7-3.8,20.2C242.6,176.7,242.3,176.9,241.9,176.9z M241.9,155.8c-1.5,0-2.4,0.5-3,1.4 c-2,3.3,0.9,11.6,3,16.3c2.1-4.7,5-13,3-16.3C244.3,156.3,243.4,155.8,241.9,155.8z"
                    fill="#302E32" />
            </g>
            <g id="change2_15">
                <path d="M261,178.4c0,0-4.3-23.2,5.9-20.2C277,161.1,261,178.4,261,178.4z" fill="#EABD43" />
            </g>
            <g id="change1_28">
                <path
                    d="M261,179.4c-0.1,0-0.2,0-0.3,0c-0.4-0.1-0.7-0.4-0.7-0.8c-0.3-1.6-2.8-16.1,2-20.5c1.4-1.2,3.1-1.5,5.3-0.9 c2.6,0.7,3.5,2.3,3.9,3.5c1.7,6.2-8.2,17.1-9.3,18.3C261.6,179.3,261.3,179.4,261,179.4z M265.2,159c-0.8,0-1.4,0.2-1.9,0.7 c-2.9,2.6-2.3,11.4-1.6,16.4c3.3-3.9,8.4-11.1,7.4-14.8c-0.3-1-1.1-1.7-2.5-2.1C266.1,159,265.6,159,265.2,159z"
                    fill="#302E32" />
            </g>
            <g id="change2_16">
                <path d="M278.6,186.2c0,0,2.3-23.5,11.3-17.8C298.9,174.1,278.6,186.2,278.6,186.2z" fill="#EABD43" />
            </g>
            <g id="change1_29">
                <path
                    d="M278.6,187.2c-0.2,0-0.4-0.1-0.6-0.2c-0.3-0.2-0.5-0.6-0.5-1c0.2-1.7,1.8-16.3,7.6-19.1 c1.7-0.8,3.4-0.6,5.3,0.6c1.9,1.2,2.8,2.7,2.8,4.6c-0.1,6.5-12.7,14.1-14.1,15C279,187.2,278.8,187.2,278.6,187.2z M287.2,168.5 c-0.4,0-0.8,0.1-1.2,0.3c-3.5,1.7-5.4,10.3-6.1,15.4c4.3-2.8,11.2-8.2,11.3-12.1c0-1.1-0.6-2-1.8-2.8 C288.6,168.8,287.9,168.5,287.2,168.5z"
                    fill="#302E32" />
            </g>
            <g id="change2_17">
                <path d="M293.4,198.6c0,0,8.8-21.9,15.8-14C316.2,192.6,293.4,198.6,293.4,198.6z" fill="#EABD43" />
            </g>
            <g id="change1_30">
                <path
                    d="M293.4,199.6c-0.3,0-0.6-0.1-0.8-0.3c-0.3-0.3-0.3-0.7-0.2-1.1c0.6-1.6,6.3-15.2,12.6-16.3 c1.2-0.2,3.1,0,4.9,2c1.5,1.7,1.9,3.4,1.4,5.2c-1.9,6.2-16.1,10.1-17.7,10.5C293.6,199.6,293.5,199.6,293.4,199.6z M305.9,183.9 c-0.2,0-0.3,0-0.5,0c-3.8,0.7-8.1,8.4-10.2,13c4.9-1.5,13-4.8,14.2-8.5c0.3-1.1,0-2.1-1-3.2C307.6,184.4,306.8,183.9,305.9,183.9z"
                    fill="#302E32" />
            </g>
            <g id="change2_18">
                <path d="M304.1,214.6c0,0,14.5-18.6,19-9C327.7,215.1,304.1,214.6,304.1,214.6z" fill="#EABD43" />
            </g>
            <g id="change1_31">
                <path
                    d="M305,215.6c-0.4,0-0.7,0-0.9,0c-0.4,0-0.7-0.2-0.9-0.6c-0.2-0.4-0.1-0.8,0.1-1.1c1-1.3,10.2-12.8,16.6-12.1 c1.3,0.1,3,0.8,4.2,3.3c1.2,2.4,0.6,4.2-0.1,5.3C320.9,215.3,308.7,215.6,305,215.6z M319.3,203.9c-3.8,0-9.8,5.9-13,9.7 c5.1-0.1,13.9-1,16-4.2c0.6-0.9,0.6-2-0.1-3.3c-0.6-1.3-1.4-2-2.5-2.2C319.5,203.9,319.4,203.9,319.3,203.9z"
                    fill="#302E32" />
            </g>
            <g id="change2_19">
                <path d="M310,232.9c0,0,19.1-13.8,20.8-3.4S310,232.9,310,232.9z" fill="#EABD43" />
            </g>
            <g id="change1_32">
                <path
                    d="M323.3,236.2c-5.8,0-12.5-2-13.6-2.4c-0.4-0.1-0.6-0.4-0.7-0.8c-0.1-0.4,0.1-0.8,0.4-1 c1.4-1,13.4-9.5,19.3-7c1.2,0.5,2.6,1.6,3.1,4.3s-0.6,4.2-1.5,5C328.7,235.8,326.1,236.2,323.3,236.2z M312.4,232.5 c4.9,1.3,13.6,2.8,16.5,0.3c0.8-0.7,1.1-1.7,0.9-3.2s-0.8-2.3-1.8-2.7C324.4,225.5,316.7,229.7,312.4,232.5z"
                    fill="#302E32" />
            </g>
            <g id="change2_20">
                <path d="M222.8,178.4c0,0,4.3-23.2-5.9-20.2S222.8,178.4,222.8,178.4z" fill="#EABD43" />
            </g>
            <g id="change1_33">
                <path
                    d="M222.8,179.4c-0.3,0-0.6-0.1-0.8-0.3c-1.1-1.2-11.1-12-9.4-18.3c0.5-1.8,1.8-3,3.9-3.6 c2.1-0.6,3.9-0.3,5.3,0.9c4.8,4.3,2.3,18.8,1.9,20.5c-0.1,0.4-0.4,0.7-0.7,0.8C223,179.4,222.9,179.4,222.8,179.4z M218.6,159 c-0.4,0-0.9,0.1-1.4,0.2c-1.4,0.4-2.2,1.1-2.5,2.2c-1,3.7,4.2,10.8,7.5,14.7c0.7-5,1.2-13.8-1.6-16.4C220,159.2,219.3,159,218.6,159 z"
                    fill="#302E32" />
            </g>
            <g id="change2_21">
                <path d="M205.1,186.2c0,0-2.3-23.5-11.3-17.8C184.9,174.1,205.1,186.2,205.1,186.2z" fill="#EABD43" />
            </g>
            <g id="change1_34">
                <path
                    d="M205.1,187.2c-0.2,0-0.4,0-0.5-0.1c-1.4-0.9-14-8.6-14.1-15c0-1.3,0.4-3.1,2.7-4.5c1.9-1.2,3.7-1.4,5.3-0.6 c5.8,2.8,7.4,17.5,7.6,19.1c0,0.4-0.1,0.8-0.5,1C205.5,187.2,205.3,187.2,205.1,187.2z M196.5,168.5c-0.7,0-1.4,0.2-2.1,0.7 c-1.2,0.8-1.8,1.7-1.8,2.8c0.1,3.9,7,9.3,11.2,12.1c-0.7-5-2.7-13.6-6.1-15.3C197.3,168.6,196.9,168.5,196.5,168.5z"
                    fill="#302E32" />
            </g>
            <g id="change2_22">
                <path d="M190.4,198.6c0,0-8.8-21.9-15.8-14C167.6,192.6,190.4,198.6,190.4,198.6z" fill="#EABD43" />
            </g>
            <g id="change1_35">
                <path
                    d="M190.4,199.6c-0.1,0-0.2,0-0.3,0c-1.6-0.4-15.8-4.3-17.7-10.5c-0.5-1.8-0.1-3.5,1.4-5.2c1.8-2,3.7-2.2,4.9-2 c6.4,1.1,12,14.7,12.6,16.3c0.1,0.4,0.1,0.8-0.2,1.1C191,199.5,190.7,199.6,190.4,199.6z M177.9,183.9c-0.9,0-1.7,0.5-2.5,1.4 c-1,1.1-1.3,2.1-1,3.2c1.1,3.7,9.3,7,14.2,8.5c-2.1-4.6-6.4-12.4-10.2-13C178.2,183.9,178.1,183.9,177.9,183.9z"
                    fill="#302E32" />
            </g>
            <g id="change2_23">
                <path d="M179.6,214.6c0,0-14.5-18.6-19.1-9C156.1,215.1,179.6,214.6,179.6,214.6z" fill="#EABD43" />
            </g>
            <g id="change1_36">
                <path
                    d="M178.7,215.6c-3.7,0-15.9-0.4-19-5.2c-0.7-1-1.3-2.8-0.1-5.3c1-2,2.4-3.1,4.2-3.3 c6.4-0.7,15.6,10.8,16.6,12.1c0.2,0.3,0.3,0.7,0.1,1.1s-0.5,0.6-0.9,0.6C179.5,215.6,179.1,215.6,178.7,215.6z M164.4,203.9 c-0.1,0-0.3,0-0.4,0c-1.1,0.1-1.9,0.8-2.6,2.1c-0.6,1.3-0.6,2.3,0,3.3c2.1,3.2,10.9,4.1,16,4.3C174.2,209.8,168.3,203.9,164.4,203.9 z"
                    fill="#302E32" />
            </g>
            <g id="change2_24">
                <path d="M173.8,232.9c0,0-19.1-13.8-20.8-3.4C151.3,240,173.8,232.9,173.8,232.9z" fill="#EABD43" />
            </g>
            <g id="change1_37">
                <path
                    d="M160.5,236.3c-2.8,0-5.3-0.5-6.9-1.8c-1.4-1.2-1.9-2.9-1.6-5.1c0.4-2.7,1.9-3.8,3.1-4.3c6-2.5,18,6,19.3,7 c0.3,0.2,0.5,0.6,0.4,1s-0.3,0.7-0.7,0.8C173,234.2,166.3,236.3,160.5,236.3z M157.6,226.6c-0.6,0-1.2,0.1-1.7,0.3 c-1,0.4-1.6,1.3-1.8,2.7c-0.2,1.4,0.1,2.5,0.9,3.2c2.9,2.5,11.6,0.9,16.5-0.4C167.7,230.1,161.5,226.6,157.6,226.6z"
                    fill="#302E32" />
            </g>
            <g id="change2_25">
                <path
                    d="M377,311c1.4,2.2,2.3,5,2.3,8c0,7.6-5.5,13.8-12.3,13.8s-12.3-6.2-12.3-13.8c0-3,0.9-5.7,2.3-8 c-5.2,3.3-8.7,9.2-8.7,15.8c0,10.4,8.4,18.8,18.8,18.8s18.8-8.4,18.8-18.8C385.7,320.2,382.2,314.4,377,311z"
                    fill="#EABD43" />
            </g>
            <g id="change1_38">
                <path
                    d="M367.1,346.6c-10.9,0-19.8-8.9-19.8-19.8c0-6.7,3.5-13.1,9.2-16.7c0.4-0.3,0.9-0.2,1.3,0.1s0.4,0.9,0.2,1.3 c-1.4,2.3-2.1,4.9-2.1,7.5c0,7,5.1,12.8,11.3,12.8s11.3-5.7,11.3-12.8c0-2.6-0.8-5.3-2.1-7.4c-0.3-0.4-0.2-0.9,0.1-1.3 c0.3-0.3,0.9-0.4,1.3-0.1c5.7,3.7,9.2,9.9,9.4,16.6C386.9,337.7,378,346.6,367.1,346.6z M354.3,314.5c-3.1,3.3-5,7.7-5,12.3 c0,9.8,8,17.8,17.8,17.8c9.8,0,17.8-8,17.8-17.8c-0.1-4.6-2-8.9-5.2-12.2c0.4,1.4,0.6,2.9,0.6,4.4c0,8.2-6,14.8-13.3,14.8 s-13.3-6.7-13.3-14.8C353.7,317.5,353.9,316,354.3,314.5z"
                    fill="#302E32" />
            </g>
            <g id="change2_26">
                <path d="M367,261.8c2.7,0,4.9,2.2,4.9,4.9s-2.2,4.9-4.9,4.9s-4.9-2.2-4.9-4.9S364.3,261.8,367,261.8z"
                    fill="#EABD43" />
            </g>
            <g id="change1_39">
                <path
                    d="M367,272.6c-3.3,0-5.9-2.7-5.9-5.9c0-3.3,2.7-5.9,5.9-5.9s5.9,2.7,5.9,5.9C372.9,270,370.3,272.6,367,272.6z M367,262.8c-2.1,0-3.9,1.7-3.9,3.9c0,2.1,1.7,3.9,3.9,3.9s3.9-1.7,3.9-3.9C370.9,264.6,369.1,262.8,367,262.8z"
                    fill="#302E32" />
            </g>
            <g id="change2_27">
                <path d="M367,278.2c2.7,0,4.9,2.2,4.9,4.9s-2.2,4.9-4.9,4.9s-4.9-2.2-4.9-4.9S364.3,278.2,367,278.2z"
                    fill="#EABD43" />
            </g>
            <g id="change1_40">
                <path
                    d="M367,289c-3.3,0-5.9-2.7-5.9-5.9c0-3.3,2.7-5.9,5.9-5.9s5.9,2.7,5.9,5.9C372.9,286.4,370.3,289,367,289z M367,279.2c-2.1,0-3.9,1.7-3.9,3.9c0,2.1,1.7,3.9,3.9,3.9s3.9-1.7,3.9-3.9C370.9,281,369.1,279.2,367,279.2z"
                    fill="#302E32" />
            </g>
            <g id="change2_28">
                <path d="M367,294.6c2.7,0,4.9,2.2,4.9,4.9s-2.2,4.9-4.9,4.9s-4.9-2.2-4.9-4.9S364.3,294.6,367,294.6z"
                    fill="#EABD43" />
            </g>
            <g id="change1_41">
                <path
                    d="M367,305.4c-3.3,0-5.9-2.7-5.9-5.9s2.7-5.9,5.9-5.9s5.9,2.7,5.9,5.9S370.3,305.4,367,305.4z M367,295.6 c-2.1,0-3.9,1.7-3.9,3.9s1.7,3.9,3.9,3.9s3.9-1.7,3.9-3.9S369.1,295.6,367,295.6z"
                    fill="#302E32" />
            </g>
            <g id="change2_29">
                <path d="M408.2,261.8c2.7,0,4.9,2.2,4.9,4.9s-2.2,4.9-4.9,4.9s-4.9-2.2-4.9-4.9S405.5,261.8,408.2,261.8z"
                    fill="#EABD43" />
            </g>
            <g id="change1_42">
                <path
                    d="M408.2,272.6c-3.3,0-5.9-2.7-5.9-5.9c0-3.3,2.7-5.9,5.9-5.9c3.3,0,5.9,2.7,5.9,5.9 C414.1,270,411.5,272.6,408.2,272.6z M408.2,262.8c-2.1,0-3.9,1.7-3.9,3.9c0,2.1,1.7,3.9,3.9,3.9c2.1,0,3.9-1.7,3.9-3.9 C412.1,264.6,410.3,262.8,408.2,262.8z"
                    fill="#302E32" />
            </g>
            <g id="change2_30">
                <path d="M408.2,278.2c2.7,0,4.9,2.2,4.9,4.9s-2.2,4.9-4.9,4.9s-4.9-2.2-4.9-4.9S405.5,278.2,408.2,278.2z"
                    fill="#EABD43" />
            </g>
            <g id="change1_43">
                <path
                    d="M408.2,289c-3.3,0-5.9-2.7-5.9-5.9c0-3.3,2.7-5.9,5.9-5.9c3.3,0,5.9,2.7,5.9,5.9 C414.1,286.4,411.5,289,408.2,289z M408.2,279.2c-2.1,0-3.9,1.7-3.9,3.9c0,2.1,1.7,3.9,3.9,3.9c2.1,0,3.9-1.7,3.9-3.9 C412.1,281,410.3,279.2,408.2,279.2z"
                    fill="#302E32" />
            </g>
            <g id="change2_31">
                <path d="M408.2,294.6c2.7,0,4.9,2.2,4.9,4.9s-2.2,4.9-4.9,4.9s-4.9-2.2-4.9-4.9S405.5,294.6,408.2,294.6z"
                    fill="#EABD43" />
            </g>
            <g id="change1_44">
                <path
                    d="M408.2,305.4c-3.3,0-5.9-2.7-5.9-5.9s2.7-5.9,5.9-5.9c3.3,0,5.9,2.7,5.9,5.9S411.5,305.4,408.2,305.4z M408.2,295.6c-2.1,0-3.9,1.7-3.9,3.9s1.7,3.9,3.9,3.9c2.1,0,3.9-1.7,3.9-3.9S410.3,295.6,408.2,295.6z"
                    fill="#302E32" />
            </g>
            <g id="change2_32">
                <path d="M408.2,311c2.7,0,4.9,2.2,4.9,4.9s-2.2,4.9-4.9,4.9s-4.9-2.2-4.9-4.9S405.5,311,408.2,311z"
                    fill="#EABD43" />
            </g>
            <g id="change1_45">
                <path
                    d="M408.2,321.8c-3.3,0-5.9-2.7-5.9-5.9c0-3.3,2.7-5.9,5.9-5.9c3.3,0,5.9,2.7,5.9,5.9 C414.1,319.2,411.5,321.8,408.2,321.8z M408.2,312c-2.1,0-3.9,1.7-3.9,3.9c0,2.1,1.7,3.9,3.9,3.9c2.1,0,3.9-1.7,3.9-3.9 C412.1,313.8,410.3,312,408.2,312z"
                    fill="#302E32" />
            </g>
            <g id="change2_33">
                <path d="M447.4,261.8c2.7,0,4.9,2.2,4.9,4.9s-2.2,4.9-4.9,4.9s-4.9-2.2-4.9-4.9S444.7,261.8,447.4,261.8z"
                    fill="#EABD43" />
            </g>
            <g id="change1_46">
                <path
                    d="M447.4,272.6c-3.3,0-5.9-2.7-5.9-5.9c0-3.3,2.7-5.9,5.9-5.9c3.3,0,5.9,2.7,5.9,5.9 C453.3,270,450.7,272.6,447.4,272.6z M447.4,262.8c-2.1,0-3.9,1.7-3.9,3.9c0,2.1,1.7,3.9,3.9,3.9c2.1,0,3.9-1.7,3.9-3.9 C451.3,264.6,449.5,262.8,447.4,262.8z"
                    fill="#302E32" />
            </g>
            <g id="change2_34">
                <path d="M447.4,278.2c2.7,0,4.9,2.2,4.9,4.9s-2.2,4.9-4.9,4.9s-4.9-2.2-4.9-4.9S444.7,278.2,447.4,278.2z"
                    fill="#EABD43" />
            </g>
            <g id="change1_47">
                <path
                    d="M447.4,289c-3.3,0-5.9-2.7-5.9-5.9c0-3.3,2.7-5.9,5.9-5.9c3.3,0,5.9,2.7,5.9,5.9 C453.3,286.4,450.7,289,447.4,289z M447.4,279.2c-2.1,0-3.9,1.7-3.9,3.9c0,2.1,1.7,3.9,3.9,3.9c2.1,0,3.9-1.7,3.9-3.9 C451.3,281,449.5,279.2,447.4,279.2z"
                    fill="#302E32" />
            </g>
            <g id="change2_35">
                <path d="M447.4,294.6c2.7,0,4.9,2.2,4.9,4.9s-2.2,4.9-4.9,4.9s-4.9-2.2-4.9-4.9S444.7,294.6,447.4,294.6z"
                    fill="#EABD43" />
            </g>
            <g id="change1_48">
                <path
                    d="M447.4,305.4c-3.3,0-5.9-2.7-5.9-5.9s2.7-5.9,5.9-5.9c3.3,0,5.9,2.7,5.9,5.9S450.7,305.4,447.4,305.4z M447.4,295.6c-2.1,0-3.9,1.7-3.9,3.9s1.7,3.9,3.9,3.9c2.1,0,3.9-1.7,3.9-3.9S449.5,295.6,447.4,295.6z"
                    fill="#302E32" />
            </g>
            <g id="change2_36">
                <path d="M447.4,312.4c2.7,0,4.9,2.2,4.9,4.9s-2.2,4.9-4.9,4.9s-4.9-2.2-4.9-4.9S444.7,312.4,447.4,312.4z"
                    fill="#EABD43" />
            </g>
            <g id="change1_49">
                <path
                    d="M447.4,323.2c-3.3,0-5.9-2.7-5.9-5.9c0-3.3,2.7-5.9,5.9-5.9c3.3,0,5.9,2.7,5.9,5.9 C453.3,320.6,450.7,323.2,447.4,323.2z M447.4,313.4c-2.1,0-3.9,1.7-3.9,3.9c0,2.1,1.7,3.9,3.9,3.9c2.1,0,3.9-1.7,3.9-3.9 C451.3,315.2,449.5,313.4,447.4,313.4z"
                    fill="#302E32" />
            </g>
            <g id="change2_37">
                <path
                    d="M459.9,341.8c1.8,2.9,2.9,6.3,2.9,10.1c0,9.6-7,17.5-15.6,17.5s-15.6-7.8-15.6-17.5c0-3.8,1.1-7.2,2.9-10.1 c-6.7,4.2-11.1,11.6-11.1,20.1c0,13.2,10.7,23.8,23.8,23.8S471,375,471,361.9C471,353.4,466.5,346,459.9,341.8z"
                    fill="#EABD43" />
            </g>
            <g id="change1_50">
                <path
                    d="M447.2,386.7c-13.7,0-24.8-11.1-24.8-24.8c0-8.6,4.3-16.4,11.6-21c0.4-0.3,0.9-0.2,1.3,0.1s0.4,0.9,0.1,1.3 c-1.8,2.9-2.7,6.2-2.7,9.6c0,9.1,6.5,16.5,14.6,16.5c8,0,14.6-7.4,14.6-16.5c0-3.4-0.9-6.6-2.7-9.6c-0.3-0.4-0.2-0.9,0.2-1.3 c0.3-0.3,0.9-0.4,1.3-0.1c7.2,4.6,11.6,12.5,11.6,21C472,375.6,460.9,386.7,447.2,386.7z M431.7,345.2c-4.6,4.2-7.3,10.2-7.3,16.7 c0,12.6,10.2,22.8,22.8,22.8s22.8-10.2,22.8-22.8c0-6.4-2.7-12.4-7.3-16.6c0.7,2.1,1.1,4.3,1.1,6.6c0,10.2-7.5,18.5-16.6,18.5 c-9.2,0-16.6-8.3-16.6-18.5C430.6,349.6,431,347.3,431.7,345.2z"
                    fill="#302E32" />
            </g>
            <g id="change2_38">
                <path d="M447.4,330.2c2.7,0,4.9,2.2,4.9,4.9s-2.2,4.9-4.9,4.9s-4.9-2.2-4.9-4.9S444.7,330.2,447.4,330.2z"
                    fill="#EABD43" />
            </g>
            <g id="change1_51">
                <path
                    d="M447.4,341c-3.3,0-5.9-2.7-5.9-5.9c0-3.3,2.7-5.9,5.9-5.9c3.3,0,5.9,2.7,5.9,5.9 C453.3,338.4,450.7,341,447.4,341z M447.4,331.2c-2.1,0-3.9,1.7-3.9,3.9c0,2.1,1.7,3.9,3.9,3.9c2.1,0,3.9-1.7,3.9-3.9 C451.3,333,449.5,331.2,447.4,331.2z"
                    fill="#302E32" />
            </g>
            <g id="change2_39">
                <path
                    d="M106.6,311c-1.4,2.2-2.3,5-2.3,8c0,7.6,5.5,13.8,12.3,13.8s12.3-6.2,12.3-13.8c0-3-0.9-5.7-2.3-8 c5.2,3.3,8.7,9.2,8.7,15.8c0,10.4-8.4,18.8-18.8,18.8s-18.8-8.4-18.8-18.8C97.9,320.2,101.4,314.4,106.6,311z"
                    fill="#EABD43" />
            </g>
            <g id="change1_52">
                <path
                    d="M116.5,346.6c-10.9,0-19.8-8.9-19.8-19.8c0.2-6.7,3.7-13,9.4-16.7c0.4-0.3,0.9-0.2,1.3,0.1 c0.3,0.3,0.4,0.9,0.1,1.3c-1.4,2.2-2.1,4.8-2.1,7.4c0,7,5.1,12.8,11.3,12.8s11.3-5.7,11.3-12.8c0-2.6-0.7-5.1-2.1-7.5 c-0.2-0.4-0.2-0.9,0.2-1.3c0.3-0.3,0.9-0.4,1.3-0.1c5.7,3.6,9.2,10,9.2,16.7C136.3,337.7,127.4,346.6,116.5,346.6z M103.9,314.6 c-3.2,3.3-5,7.6-5.2,12.3c0,9.8,8,17.7,17.8,17.7s17.8-8,17.8-17.8c0-4.6-1.8-9-5-12.3c0.4,1.5,0.6,3,0.6,4.5 c0,8.2-6,14.8-13.3,14.8s-13.3-6.7-13.3-14.8C103.3,317.5,103.5,316,103.9,314.6z"
                    fill="#302E32" />
            </g>
            <g id="change2_40">
                <path d="M116.7,261.8c2.7,0,4.9,2.2,4.9,4.9s-2.2,4.9-4.9,4.9s-4.9-2.2-4.9-4.9S114,261.8,116.7,261.8z"
                    fill="#EABD43" />
            </g>
            <g id="change1_53">
                <path
                    d="M116.7,272.6c-3.3,0-5.9-2.7-5.9-5.9c0-3.3,2.7-5.9,5.9-5.9c3.3,0,5.9,2.7,5.9,5.9 C122.6,270,120,272.6,116.7,272.6z M116.7,262.8c-2.1,0-3.9,1.7-3.9,3.9c0,2.1,1.7,3.9,3.9,3.9c2.1,0,3.9-1.7,3.9-3.9 C120.6,264.6,118.8,262.8,116.7,262.8z"
                    fill="#302E32" />
            </g>
            <g id="change2_41">
                <path d="M116.7,278.2c2.7,0,4.9,2.2,4.9,4.9s-2.2,4.9-4.9,4.9s-4.9-2.2-4.9-4.9S114,278.2,116.7,278.2z"
                    fill="#EABD43" />
            </g>
            <g id="change1_54">
                <path
                    d="M116.7,289c-3.3,0-5.9-2.7-5.9-5.9c0-3.3,2.7-5.9,5.9-5.9c3.3,0,5.9,2.7,5.9,5.9 C122.6,286.4,120,289,116.7,289z M116.7,279.2c-2.1,0-3.9,1.7-3.9,3.9c0,2.1,1.7,3.9,3.9,3.9c2.1,0,3.9-1.7,3.9-3.9 C120.6,281,118.8,279.2,116.7,279.2z"
                    fill="#302E32" />
            </g>
            <g id="change2_42">
                <path d="M116.7,294.6c2.7,0,4.9,2.2,4.9,4.9s-2.2,4.9-4.9,4.9s-4.9-2.2-4.9-4.9S114,294.6,116.7,294.6z"
                    fill="#EABD43" />
            </g>
            <g id="change1_55">
                <path
                    d="M116.7,305.4c-3.3,0-5.9-2.7-5.9-5.9s2.7-5.9,5.9-5.9c3.3,0,5.9,2.7,5.9,5.9S120,305.4,116.7,305.4z M116.7,295.6c-2.1,0-3.9,1.7-3.9,3.9s1.7,3.9,3.9,3.9c2.1,0,3.9-1.7,3.9-3.9S118.8,295.6,116.7,295.6z"
                    fill="#302E32" />
            </g>
            <g id="change2_43">
                <path d="M75.4,261.8c2.7,0,4.9,2.2,4.9,4.9s-2.2,4.9-4.9,4.9s-4.9-2.2-4.9-4.9S72.7,261.8,75.4,261.8z"
                    fill="#EABD43" />
            </g>
            <g id="change1_56">
                <path
                    d="M75.4,272.6c-3.3,0-5.9-2.7-5.9-5.9c0-3.3,2.7-5.9,5.9-5.9s5.9,2.7,5.9,5.9C81.3,270,78.7,272.6,75.4,272.6z M75.4,262.8c-2.1,0-3.9,1.7-3.9,3.9c0,2.1,1.7,3.9,3.9,3.9s3.9-1.7,3.9-3.9C79.3,264.6,77.5,262.8,75.4,262.8z"
                    fill="#302E32" />
            </g>
            <g id="change2_44">
                <path d="M75.4,278.2c2.7,0,4.9,2.2,4.9,4.9s-2.2,4.9-4.9,4.9s-4.9-2.2-4.9-4.9S72.7,278.2,75.4,278.2z"
                    fill="#EABD43" />
            </g>
            <g id="change1_57">
                <path
                    d="M75.4,289c-3.3,0-5.9-2.7-5.9-5.9c0-3.3,2.7-5.9,5.9-5.9s5.9,2.7,5.9,5.9C81.3,286.4,78.7,289,75.4,289z M75.4,279.2c-2.1,0-3.9,1.7-3.9,3.9c0,2.1,1.7,3.9,3.9,3.9s3.9-1.7,3.9-3.9C79.3,281,77.5,279.2,75.4,279.2z"
                    fill="#302E32" />
            </g>
            <g id="change2_45">
                <path d="M75.4,294.6c2.7,0,4.9,2.2,4.9,4.9s-2.2,4.9-4.9,4.9s-4.9-2.2-4.9-4.9S72.7,294.6,75.4,294.6z"
                    fill="#EABD43" />
            </g>
            <g id="change1_58">
                <path
                    d="M75.4,305.4c-3.3,0-5.9-2.7-5.9-5.9s2.7-5.9,5.9-5.9s5.9,2.7,5.9,5.9S78.7,305.4,75.4,305.4z M75.4,295.6 c-2.1,0-3.9,1.7-3.9,3.9s1.7,3.9,3.9,3.9s3.9-1.7,3.9-3.9S77.5,295.6,75.4,295.6z"
                    fill="#302E32" />
            </g>
            <g id="change2_46">
                <path d="M75.4,311c2.7,0,4.9,2.2,4.9,4.9s-2.2,4.9-4.9,4.9s-4.9-2.2-4.9-4.9S72.7,311,75.4,311z" fill="#EABD43" />
            </g>
            <g id="change1_59">
                <path
                    d="M75.4,321.8c-3.3,0-5.9-2.7-5.9-5.9c0-3.3,2.7-5.9,5.9-5.9s5.9,2.7,5.9,5.9 C81.3,319.2,78.7,321.8,75.4,321.8z M75.4,312c-2.1,0-3.9,1.7-3.9,3.9c0,2.1,1.7,3.9,3.9,3.9s3.9-1.7,3.9-3.9 C79.3,313.8,77.5,312,75.4,312z"
                    fill="#302E32" />
            </g>
            <g id="change2_47">
                <path d="M36.2,261.8c2.7,0,4.9,2.2,4.9,4.9s-2.2,4.9-4.9,4.9s-4.9-2.2-4.9-4.9S33.5,261.8,36.2,261.8z"
                    fill="#EABD43" />
            </g>
            <g id="change1_60">
                <path
                    d="M36.2,272.6c-3.3,0-5.9-2.7-5.9-5.9c0-3.3,2.7-5.9,5.9-5.9c3.3,0,5.9,2.7,5.9,5.9 C42.1,270,39.5,272.6,36.2,272.6z M36.2,262.8c-2.1,0-3.9,1.7-3.9,3.9c0,2.1,1.7,3.9,3.9,3.9c2.1,0,3.9-1.7,3.9-3.9 C40.1,264.6,38.3,262.8,36.2,262.8z"
                    fill="#302E32" />
            </g>
            <g id="change2_48">
                <path d="M36.2,278.2c2.7,0,4.9,2.2,4.9,4.9s-2.2,4.9-4.9,4.9s-4.9-2.2-4.9-4.9S33.5,278.2,36.2,278.2z"
                    fill="#EABD43" />
            </g>
            <g id="change1_61">
                <path
                    d="M36.2,289c-3.3,0-5.9-2.7-5.9-5.9c0-3.3,2.7-5.9,5.9-5.9c3.3,0,5.9,2.7,5.9,5.9 C42.1,286.4,39.5,289,36.2,289z M36.2,279.2c-2.1,0-3.9,1.7-3.9,3.9c0,2.1,1.7,3.9,3.9,3.9c2.1,0,3.9-1.7,3.9-3.9 C40.1,281,38.3,279.2,36.2,279.2z"
                    fill="#302E32" />
            </g>
            <g id="change2_49">
                <path d="M36.2,294.6c2.7,0,4.9,2.2,4.9,4.9s-2.2,4.9-4.9,4.9s-4.9-2.2-4.9-4.9S33.5,294.6,36.2,294.6z"
                    fill="#EABD43" />
            </g>
            <g id="change1_62">
                <path
                    d="M36.2,305.4c-3.3,0-5.9-2.7-5.9-5.9s2.7-5.9,5.9-5.9c3.3,0,5.9,2.7,5.9,5.9S39.5,305.4,36.2,305.4z M36.2,295.6c-2.1,0-3.9,1.7-3.9,3.9s1.7,3.9,3.9,3.9c2.1,0,3.9-1.7,3.9-3.9S38.3,295.6,36.2,295.6z"
                    fill="#302E32" />
            </g>
            <g id="change2_50">
                <path d="M36.2,312.4c2.7,0,4.9,2.2,4.9,4.9s-2.2,4.9-4.9,4.9s-4.9-2.2-4.9-4.9S33.5,312.4,36.2,312.4z"
                    fill="#EABD43" />
            </g>
            <g id="change1_63">
                <path
                    d="M36.2,323.2c-3.3,0-5.9-2.7-5.9-5.9c0-3.3,2.7-5.9,5.9-5.9c3.3,0,5.9,2.7,5.9,5.9 C42.1,320.6,39.5,323.2,36.2,323.2z M36.2,313.4c-2.1,0-3.9,1.7-3.9,3.9c0,2.1,1.7,3.9,3.9,3.9c2.1,0,3.9-1.7,3.9-3.9 C40.1,315.2,38.3,313.4,36.2,313.4z"
                    fill="#302E32" />
            </g>
            <g id="change2_51">
                <path
                    d="M23.8,341.8c-1.8,2.9-2.9,6.3-2.9,10.1c0,9.6,7,17.5,15.6,17.5s15.7-7.8,15.7-17.5c0-3.8-1.1-7.2-2.9-10.1 c6.7,4.2,11.1,11.6,11.1,20.1c0,13.2-10.7,23.8-23.8,23.8S12.8,375,12.8,361.9C12.7,353.4,17.1,346,23.8,341.8z"
                    fill="#EABD43" />
            </g>
            <g id="change1_64">
                <path
                    d="M36.6,386.7c-13.7,0-24.8-11.1-24.8-24.8c-0.1-8.6,4.2-16.4,11.5-21c0.4-0.3,0.9-0.2,1.3,0.1 c0.3,0.3,0.4,0.9,0.1,1.3c-1.8,2.9-2.7,6.2-2.7,9.6c0,9.1,6.5,16.5,14.6,16.5c8.1,0,14.7-7.4,14.7-16.5c0-3.4-0.9-6.6-2.7-9.6 c-0.3-0.4-0.2-0.9,0.1-1.3c0.3-0.3,0.9-0.4,1.3-0.1c7.3,4.5,11.6,12.4,11.6,21C61.4,375.6,50.3,386.7,36.6,386.7z M21,345.2 c-4.6,4.3-7.3,10.2-7.2,16.7c0,12.6,10.2,22.8,22.8,22.8s22.8-10.2,22.8-22.8c0-6.5-2.7-12.4-7.3-16.7c0.8,2.1,1.1,4.4,1.1,6.7 c0,10.2-7.5,18.5-16.7,18.5c-9.2,0-16.6-8.3-16.6-18.5C19.9,349.6,20.3,347.3,21,345.2z"
                    fill="#302E32" />
            </g>
            <g id="change2_52">
                <path d="M36.2,330.2c2.7,0,4.9,2.2,4.9,4.9s-2.2,4.9-4.9,4.9s-4.9-2.2-4.9-4.9S33.5,330.2,36.2,330.2z"
                    fill="#EABD43" />
            </g>
            <g id="change1_65">
                <path
                    d="M36.2,341c-3.3,0-5.9-2.7-5.9-5.9c0-3.3,2.7-5.9,5.9-5.9c3.3,0,5.9,2.7,5.9,5.9 C42.1,338.4,39.5,341,36.2,341z M36.2,331.2c-2.1,0-3.9,1.7-3.9,3.9c0,2.1,1.7,3.9,3.9,3.9c2.1,0,3.9-1.7,3.9-3.9 C40.1,333,38.3,331.2,36.2,331.2z"
                    fill="#302E32" />
            </g>
        </svg>